<?xml version="1.0" encoding="UTF-8" standalone="no"?>
<!DOCTYPE svg PUBLIC "-//W3C//DTD SVG 1.1//EN"
 "http://www.w3.org/Graphics/SVG/1.1/DTD/svg11.dtd">
<!-- Generated by graphviz version 2.43.0 (0)
 -->
<!-- Title: G Pages: 1 -->
<svg width="825pt" height="1254pt"
 viewBox="0.00 0.00 824.70 1254.36" xmlns="http://www.w3.org/2000/svg" xmlns:xlink="http://www.w3.org/1999/xlink">
<g id="graph0" class="graph" transform="scale(1 1) rotate(0) translate(4 1250.36)">
<title>G</title><style>.edge>path:hover{stroke-width:8}</style>
<polygon fill="white" stroke="transparent" points="-4,4 -4,-1250.36 820.7,-1250.36 820.7,4 -4,4"/>
<!-- DKOps_environment_config -->
<g id="node1" class="node">
<title>DKOps_environment_config</title><style>.edge>path:hover{stroke-width:8}</style>
<ellipse fill="#df0b0b" stroke="black" cx="265.27" cy="-712.72" rx="79.81" ry="21.43"/>
<text text-anchor="middle" x="265.27" y="-715.72" font-family="Helvetica,sans-Serif" font-size="10.00" fill="#ffffff">DKOps.</text>
<text text-anchor="middle" x="265.27" y="-704.72" font-family="Helvetica,sans-Serif" font-size="10.00" fill="#ffffff">environment_config</text>
</g>
<!-- DKOps_launcher -->
<g id="node2" class="node">
<title>DKOps_launcher</title><style>.edge>path:hover{stroke-width:8}</style>
<ellipse fill="#964040" stroke="black" cx="570.27" cy="-637.5" rx="55.17" ry="18"/>
<text text-anchor="middle" x="570.27" y="-635" font-family="Helvetica,sans-Serif" font-size="10.00" fill="#ffffff">DKOps.launcher</text>
</g>
<!-- DKOps_environment_config&#45;&gt;DKOps_launcher -->
<g id="edge1" class="edge">
<title>DKOps_environment_config&#45;&gt;DKOps_launcher</title><style>.edge>path:hover{stroke-width:8}</style>
<path fill="none" stroke="black" d="M322.64,-697.95C378.52,-684.53 462.78,-664.31 517.16,-651.25"/>
<polygon fill="#df0b0b" stroke="black" points="518.05,-654.64 526.96,-648.9 516.42,-647.83 518.05,-654.64"/>
</g>
<!-- DKOps_table_governance_contracts_loader -->
<g id="node6" class="node">
<title>DKOps_table_governance_contracts_loader</title><style>.edge>path:hover{stroke-width:8}</style>
<ellipse fill="#df0b0b" stroke="black" cx="219.27" cy="-509.74" rx="75.82" ry="36.54"/>
<text text-anchor="middle" x="219.27" y="-523.74" font-family="Helvetica,sans-Serif" font-size="10.00" fill="#ffffff">DKOps.</text>
<text text-anchor="middle" x="219.27" y="-512.74" font-family="Helvetica,sans-Serif" font-size="10.00" fill="#ffffff">table_governance.</text>
<text text-anchor="middle" x="219.27" y="-501.74" font-family="Helvetica,sans-Serif" font-size="10.00" fill="#ffffff">contracts.</text>
<text text-anchor="middle" x="219.27" y="-490.74" font-family="Helvetica,sans-Serif" font-size="10.00" fill="#ffffff">loader</text>
</g>
<!-- DKOps_environment_config&#45;&gt;DKOps_table_governance_contracts_loader -->
<g id="edge2" class="edge">
<title>DKOps_environment_config&#45;&gt;DKOps_table_governance_contracts_loader</title><style>.edge>path:hover{stroke-width:8}</style>
<path fill="none" stroke="black" d="M284.41,-691.86C305.82,-667.14 335.96,-623.31 323.27,-583.5"/>
<path fill="none" stroke="black" d="M323.27,-582.5C318.15,-563.47 303.82,-548.96 287.36,-538.14"/>
<polygon fill="#df0b0b" stroke="black" points="288.97,-535.02 278.61,-532.81 285.33,-541 288.97,-535.02"/>
</g>
<!-- DKOps_table_governance_migrations_safe_migrator -->
<g id="node9" class="node">
<title>DKOps_table_governance_migrations_safe_migrator</title><style>.edge>path:hover{stroke-width:8}</style>
<polygon fill="blue" stroke="black" points="148.77,-305.98 41.77,-305.98 41.77,-253.98 148.77,-253.98 148.77,-305.98"/>
<text text-anchor="middle" x="95.27" y="-293.98" font-family="Helvetica,sans-Serif" font-size="10.00" fill="white">DKOps.</text>
<text text-anchor="middle" x="95.27" y="-282.98" font-family="Helvetica,sans-Serif" font-size="10.00" fill="white">table_governance.</text>
<text text-anchor="middle" x="95.27" y="-271.98" font-family="Helvetica,sans-Serif" font-size="10.00" fill="white">migrations.</text>
<text text-anchor="middle" x="95.27" y="-260.98" font-family="Helvetica,sans-Serif" font-size="10.00" fill="white">safe_migrator</text>
</g>
<!-- DKOps_environment_config&#45;&gt;DKOps_table_governance_migrations_safe_migrator -->
<g id="edge3" class="edge">
<title>DKOps_environment_config&#45;&gt;DKOps_table_governance_migrations_safe_migrator</title><style>.edge>path:hover{stroke-width:8}</style>
<path fill="none" stroke="black" d="M212.06,-696.79C162.26,-679.24 93.2,-644.47 77.27,-583.5"/>
</g>
<!-- DKOps_table_governance_writers_base_writer -->
<g id="node12" class="node">
<title>DKOps_table_governance_writers_base_writer</title><style>.edge>path:hover{stroke-width:8}</style>
<polygon fill="blue" stroke="black" points="552.77,-305.98 445.77,-305.98 445.77,-253.98 552.77,-253.98 552.77,-305.98"/>
<text text-anchor="middle" x="499.27" y="-293.98" font-family="Helvetica,sans-Serif" font-size="10.00" fill="white">DKOps.</text>
<text text-anchor="middle" x="499.27" y="-282.98" font-family="Helvetica,sans-Serif" font-size="10.00" fill="white">table_governance.</text>
<text text-anchor="middle" x="499.27" y="-271.98" font-family="Helvetica,sans-Serif" font-size="10.00" fill="white">writers.</text>
<text text-anchor="middle" x="499.27" y="-260.98" font-family="Helvetica,sans-Serif" font-size="10.00" fill="white">base_writer</text>
</g>
<!-- DKOps_environment_config&#45;&gt;DKOps_table_governance_writers_base_writer -->
<g id="edge4" class="edge">
<title>DKOps_environment_config&#45;&gt;DKOps_table_governance_writers_base_writer</title><style>.edge>path:hover{stroke-width:8}</style>
<path fill="none" stroke="black" d="M310.38,-695.1C399.48,-659.04 591.35,-564.19 613.27,-408.97"/>
<path fill="none" stroke="black" d="M613.27,-406.97C613.73,-367.07 581.87,-334.16 551.72,-311.99"/>
<polygon fill="#df0b0b" stroke="black" points="553.47,-308.94 543.29,-306.03 549.43,-314.66 553.47,-308.94"/>
</g>
<!-- DKOps_table_governance_writers_delete_writer -->
<g id="node14" class="node">
<title>DKOps_table_governance_writers_delete_writer</title><style>.edge>path:hover{stroke-width:8}</style>
<polygon fill="blue" stroke="black" points="312.77,-305.98 205.77,-305.98 205.77,-253.98 312.77,-253.98 312.77,-305.98"/>
<text text-anchor="middle" x="259.27" y="-293.98" font-family="Helvetica,sans-Serif" font-size="10.00" fill="white">DKOps.</text>
<text text-anchor="middle" x="259.27" y="-282.98" font-family="Helvetica,sans-Serif" font-size="10.00" fill="white">table_governance.</text>
<text text-anchor="middle" x="259.27" y="-271.98" font-family="Helvetica,sans-Serif" font-size="10.00" fill="white">writers.</text>
<text text-anchor="middle" x="259.27" y="-260.98" font-family="Helvetica,sans-Serif" font-size="10.00" fill="white">delete_writer</text>
</g>
<!-- DKOps_environment_config&#45;&gt;DKOps_table_governance_writers_delete_writer -->
<g id="edge5" class="edge">
<title>DKOps_environment_config&#45;&gt;DKOps_table_governance_writers_delete_writer</title><style>.edge>path:hover{stroke-width:8}</style>
<path fill="none" stroke="black" d="M323.27,-582.5C295.51,-479.35 357.64,-434.94 303.27,-342.98"/>
<path fill="none" stroke="black" d="M303.27,-341.98C297,-332.97 290.1,-323.29 283.66,-314.36"/>
<polygon fill="#df0b0b" stroke="black" points="286.36,-312.12 277.66,-306.07 280.69,-316.22 286.36,-312.12"/>
</g>
<!-- DKOps_logger_config -->
<g id="node3" class="node">
<title>DKOps_logger_config</title><style>.edge>path:hover{stroke-width:8}</style>
<ellipse fill="#f90606" stroke="black" cx="446.27" cy="-791.14" rx="57.97" ry="21.43"/>
<text text-anchor="middle" x="446.27" y="-794.14" font-family="Helvetica,sans-Serif" font-size="10.00" fill="#ffffff">DKOps.</text>
<text text-anchor="middle" x="446.27" y="-783.14" font-family="Helvetica,sans-Serif" font-size="10.00" fill="#ffffff">logger_config</text>
</g>
<!-- DKOps_logger_config&#45;&gt;DKOps_environment_config -->
<g id="edge6" class="edge">
<title>DKOps_logger_config&#45;&gt;DKOps_environment_config</title><style>.edge>path:hover{stroke-width:8}</style>
<path fill="none" stroke="black" d="M409.64,-774.68C382.61,-763.26 345.5,-747.59 315.67,-735"/>
<polygon fill="#f90606" stroke="black" points="316.84,-731.69 306.27,-731.03 314.12,-738.14 316.84,-731.69"/>
</g>
<!-- DKOps_logger_config&#45;&gt;DKOps_launcher -->
<g id="edge7" class="edge">
<title>DKOps_logger_config&#45;&gt;DKOps_launcher</title><style>.edge>path:hover{stroke-width:8}</style>
<path fill="none" stroke="black" d="M487.27,-711.72C498.87,-690.58 519.03,-672.58 536.59,-659.71"/>
<polygon fill="#f90606" stroke="black" points="538.79,-662.44 544.94,-653.82 534.75,-656.72 538.79,-662.44"/>
</g>
<!-- DKOps_logger_config&#45;&gt;DKOps_table_governance_contracts_loader -->
<g id="edge8" class="edge">
<title>DKOps_logger_config&#45;&gt;DKOps_table_governance_contracts_loader</title><style>.edge>path:hover{stroke-width:8}</style>
<path fill="none" stroke="black" d="M153.27,-711.72C105.41,-672.83 148.73,-598.49 184.21,-551.93"/>
<polygon fill="#f90606" stroke="black" points="187.11,-553.9 190.49,-543.86 181.59,-549.6 187.11,-553.9"/>
</g>
<!-- DKOps_table_governance_contracts_validator -->
<g id="node7" class="node">
<title>DKOps_table_governance_contracts_validator</title><style>.edge>path:hover{stroke-width:8}</style>
<polygon fill="blue" stroke="black" points="546.77,-433.97 439.77,-433.97 439.77,-381.97 546.77,-381.97 546.77,-433.97"/>
<text text-anchor="middle" x="493.27" y="-421.97" font-family="Helvetica,sans-Serif" font-size="10.00" fill="white">DKOps.</text>
<text text-anchor="middle" x="493.27" y="-410.97" font-family="Helvetica,sans-Serif" font-size="10.00" fill="white">table_governance.</text>
<text text-anchor="middle" x="493.27" y="-399.97" font-family="Helvetica,sans-Serif" font-size="10.00" fill="white">contracts.</text>
<text text-anchor="middle" x="493.27" y="-388.97" font-family="Helvetica,sans-Serif" font-size="10.00" fill="white">validator</text>
</g>
<!-- DKOps_logger_config&#45;&gt;DKOps_table_governance_contracts_validator -->
<g id="edge9" class="edge">
<title>DKOps_logger_config&#45;&gt;DKOps_table_governance_contracts_validator</title><style>.edge>path:hover{stroke-width:8}</style>
<path fill="none" stroke="black" d="M487.27,-711.72C507.4,-675.03 481.06,-652.9 506.27,-619.5 527.11,-591.9 562.4,-615.61 575.27,-583.5"/>
<path fill="none" stroke="black" d="M575.27,-582.5C578.29,-574 542.41,-518.15 537.27,-510.74"/>
<path fill="none" stroke="black" d="M537.27,-508.74C523.44,-488.77 512.42,-463.75 504.87,-443.77"/>
<polygon fill="#f90606" stroke="black" points="508.06,-442.31 501.34,-434.12 501.48,-444.71 508.06,-442.31"/>
</g>
<!-- DKOps_logger_config&#45;&gt;DKOps_table_governance_migrations_safe_migrator -->
<g id="edge10" class="edge">
<title>DKOps_logger_config&#45;&gt;DKOps_table_governance_migrations_safe_migrator</title><style>.edge>path:hover{stroke-width:8}</style>
<path fill="none" stroke="black" d="M395.32,-780.99C322.6,-767.7 195.66,-743.61 176.27,-733.93 164.1,-727.85 164.15,-721.89 153.27,-713.72"/>
<path fill="none" stroke="black" d="M153.27,-711.72C115.77,-683.55 92.13,-682.99 77.27,-638.5"/>
<path fill="none" stroke="black" d="M77.27,-636.5C69.81,-614.16 82.94,-606.37 77.27,-583.5"/>
<path fill="none" stroke="black" d="M77.27,-582.5C58.5,-506.81 79,-481.87 51.27,-408.97"/>
<path fill="none" stroke="black" d="M51.27,-406.97C39.27,-376.06 54.44,-340.33 70.16,-314.83"/>
<polygon fill="#f90606" stroke="black" points="73.2,-316.57 75.69,-306.27 67.32,-312.77 73.2,-316.57"/>
</g>
<!-- DKOps_table_governance_writers_append_writer -->
<g id="node11" class="node">
<title>DKOps_table_governance_writers_append_writer</title><style>.edge>path:hover{stroke-width:8}</style>
<polygon fill="blue" stroke="black" points="600.77,-217.98 493.77,-217.98 493.77,-165.98 600.77,-165.98 600.77,-217.98"/>
<text text-anchor="middle" x="547.27" y="-205.98" font-family="Helvetica,sans-Serif" font-size="10.00" fill="white">DKOps.</text>
<text text-anchor="middle" x="547.27" y="-194.98" font-family="Helvetica,sans-Serif" font-size="10.00" fill="white">table_governance.</text>
<text text-anchor="middle" x="547.27" y="-183.98" font-family="Helvetica,sans-Serif" font-size="10.00" fill="white">writers.</text>
<text text-anchor="middle" x="547.27" y="-172.98" font-family="Helvetica,sans-Serif" font-size="10.00" fill="white">append_writer</text>
</g>
<!-- DKOps_logger_config&#45;&gt;DKOps_table_governance_writers_append_writer -->
<g id="edge11" class="edge">
<title>DKOps_logger_config&#45;&gt;DKOps_table_governance_writers_append_writer</title><style>.edge>path:hover{stroke-width:8}</style>
<path fill="none" stroke="black" d="M613.27,-508.74C613.15,-450.13 785.13,-324.86 746.27,-280.98"/>
<path fill="none" stroke="black" d="M746.27,-278.98C701.64,-230.03 671.95,-242.16 610.27,-217.98 610.18,-217.95 610.08,-217.91 609.98,-217.87"/>
<polygon fill="#f90606" stroke="black" points="611.46,-214.69 600.88,-214.29 608.9,-221.21 611.46,-214.69"/>
</g>
<!-- DKOps_logger_config&#45;&gt;DKOps_table_governance_writers_base_writer -->
<g id="edge12" class="edge">
<title>DKOps_logger_config&#45;&gt;DKOps_table_governance_writers_base_writer</title><style>.edge>path:hover{stroke-width:8}</style>
<path fill="none" stroke="black" d="M487.27,-711.72C521.96,-650.98 594.62,-713.12 634.27,-655.5 643.34,-642.32 635.8,-635.43 634.27,-619.5 629.58,-570.49 608.73,-559.76 613.27,-510.74"/>
<path fill="none" stroke="black" d="M613.27,-508.74C613.18,-464.4 621.39,-452.56 613.27,-408.97"/>
</g>
<!-- DKOps_table_governance_writers_create_writer -->
<g id="node13" class="node">
<title>DKOps_table_governance_writers_create_writer</title><style>.edge>path:hover{stroke-width:8}</style>
<polygon fill="blue" stroke="black" points="350.77,-217.98 243.77,-217.98 243.77,-165.98 350.77,-165.98 350.77,-217.98"/>
<text text-anchor="middle" x="297.27" y="-205.98" font-family="Helvetica,sans-Serif" font-size="10.00" fill="white">DKOps.</text>
<text text-anchor="middle" x="297.27" y="-194.98" font-family="Helvetica,sans-Serif" font-size="10.00" fill="white">table_governance.</text>
<text text-anchor="middle" x="297.27" y="-183.98" font-family="Helvetica,sans-Serif" font-size="10.00" fill="white">writers.</text>
<text text-anchor="middle" x="297.27" y="-172.98" font-family="Helvetica,sans-Serif" font-size="10.00" fill="white">create_writer</text>
</g>
<!-- DKOps_logger_config&#45;&gt;DKOps_table_governance_writers_create_writer -->
<g id="edge13" class="edge">
<title>DKOps_logger_config&#45;&gt;DKOps_table_governance_writers_create_writer</title><style>.edge>path:hover{stroke-width:8}</style>
<path fill="none" stroke="black" d="M456.99,-769.99C465.22,-754.56 476.89,-732.75 487.27,-713.72"/>
<path fill="none" stroke="black" d="M487.27,-711.72C518.99,-653.56 411.27,-649.75 411.27,-583.5 411.27,-583.5 411.27,-583.5 411.27,-508.74 411.27,-400.53 351.31,-283.19 318.36,-226.89"/>
<polygon fill="#f90606" stroke="black" points="321.24,-224.88 313.12,-218.06 315.22,-228.45 321.24,-224.88"/>
</g>
<!-- DKOps_logger_config&#45;&gt;DKOps_table_governance_writers_delete_writer -->
<g id="edge14" class="edge">
<title>DKOps_logger_config&#45;&gt;DKOps_table_governance_writers_delete_writer</title><style>.edge>path:hover{stroke-width:8}</style>
<path fill="none" stroke="black" d="M77.27,-636.5C75.1,-627.13 127.44,-479.74 134.27,-472.97 178.58,-429.01 250.55,-470.77 259.27,-408.97"/>
<path fill="none" stroke="black" d="M259.27,-406.97C263.35,-376.62 262.96,-341.79 261.78,-316.45"/>
<polygon fill="#f90606" stroke="black" points="265.26,-316.01 261.24,-306.21 258.27,-316.39 265.26,-316.01"/>
</g>
<!-- DKOps_table_governance_writers_partition_writer -->
<g id="node15" class="node">
<title>DKOps_table_governance_writers_partition_writer</title><style>.edge>path:hover{stroke-width:8}</style>
<polygon fill="blue" stroke="black" points="725.77,-217.98 618.77,-217.98 618.77,-165.98 725.77,-165.98 725.77,-217.98"/>
<text text-anchor="middle" x="672.27" y="-205.98" font-family="Helvetica,sans-Serif" font-size="10.00" fill="white">DKOps.</text>
<text text-anchor="middle" x="672.27" y="-194.98" font-family="Helvetica,sans-Serif" font-size="10.00" fill="white">table_governance.</text>
<text text-anchor="middle" x="672.27" y="-183.98" font-family="Helvetica,sans-Serif" font-size="10.00" fill="white">writers.</text>
<text text-anchor="middle" x="672.27" y="-172.98" font-family="Helvetica,sans-Serif" font-size="10.00" fill="white">partition_writer</text>
</g>
<!-- DKOps_logger_config&#45;&gt;DKOps_table_governance_writers_partition_writer -->
<g id="edge15" class="edge">
<title>DKOps_logger_config&#45;&gt;DKOps_table_governance_writers_partition_writer</title><style>.edge>path:hover{stroke-width:8}</style>
<path fill="none" stroke="black" d="M503.67,-788C595.51,-781.16 765.27,-753.02 765.27,-638.5 765.27,-638.5 765.27,-638.5 765.27,-406.97 765.27,-377.73 813.08,-308.53 803.27,-280.98"/>
<path fill="none" stroke="black" d="M803.27,-278.98C790.08,-250.21 761.82,-229.83 734.91,-216.15"/>
<polygon fill="#f90606" stroke="black" points="736.39,-212.98 725.86,-211.77 733.34,-219.28 736.39,-212.98"/>
</g>
<!-- DKOps_table_governance_writers_upsert_writer -->
<g id="node16" class="node">
<title>DKOps_table_governance_writers_upsert_writer</title><style>.edge>path:hover{stroke-width:8}</style>
<polygon fill="blue" stroke="black" points="475.77,-217.98 368.77,-217.98 368.77,-165.98 475.77,-165.98 475.77,-217.98"/>
<text text-anchor="middle" x="422.27" y="-205.98" font-family="Helvetica,sans-Serif" font-size="10.00" fill="white">DKOps.</text>
<text text-anchor="middle" x="422.27" y="-194.98" font-family="Helvetica,sans-Serif" font-size="10.00" fill="white">table_governance.</text>
<text text-anchor="middle" x="422.27" y="-183.98" font-family="Helvetica,sans-Serif" font-size="10.00" fill="white">writers.</text>
<text text-anchor="middle" x="422.27" y="-172.98" font-family="Helvetica,sans-Serif" font-size="10.00" fill="white">upsert_writer</text>
</g>
<!-- DKOps_logger_config&#45;&gt;DKOps_table_governance_writers_upsert_writer -->
<g id="edge16" class="edge">
<title>DKOps_logger_config&#45;&gt;DKOps_table_governance_writers_upsert_writer</title><style>.edge>path:hover{stroke-width:8}</style>
<path fill="none" stroke="black" d="M575.27,-582.5C605.68,-496.85 603.49,-456.03 555.27,-378.98 522.35,-326.39 469.85,-358.16 436.27,-305.98 421.55,-283.1 418.61,-252.16 419.04,-228.44"/>
<polygon fill="#f90606" stroke="black" points="422.54,-228.56 419.42,-218.44 415.54,-228.29 422.54,-228.56"/>
</g>
<!-- DKOps_table_governance -->
<g id="node4" class="node">
<title>DKOps_table_governance</title><style>.edge>path:hover{stroke-width:8}</style>
<polygon fill="blue" stroke="black" points="536.27,-36 432.27,-36 432.27,0 536.27,0 536.27,-36"/>
<text text-anchor="middle" x="484.27" y="-21" font-family="Helvetica,sans-Serif" font-size="10.00" fill="white">DKOps.</text>
<text text-anchor="middle" x="484.27" y="-10" font-family="Helvetica,sans-Serif" font-size="10.00" fill="white">table_governance</text>
</g>
<!-- DKOps_table_governance_contracts -->
<g id="node5" class="node">
<title>DKOps_table_governance_contracts</title><style>.edge>path:hover{stroke-width:8}</style>
<ellipse fill="#f31616" stroke="black" cx="155.27" cy="-407.97" rx="75.82" ry="28.98"/>
<text text-anchor="middle" x="155.27" y="-416.47" font-family="Helvetica,sans-Serif" font-size="10.00" fill="#ffffff">DKOps.</text>
<text text-anchor="middle" x="155.27" y="-405.47" font-family="Helvetica,sans-Serif" font-size="10.00" fill="#ffffff">table_governance.</text>
<text text-anchor="middle" x="155.27" y="-394.47" font-family="Helvetica,sans-Serif" font-size="10.00" fill="#ffffff">contracts</text>
</g>
<!-- DKOps_table_governance_contracts&#45;&gt;DKOps_table_governance -->
<g id="edge17" class="edge">
<title>DKOps_table_governance_contracts&#45;&gt;DKOps_table_governance</title><style>.edge>path:hover{stroke-width:8}</style>
<path fill="none" stroke="black" d="M177.27,-341.98C187.96,-276.63 149.92,-253.29 177.27,-192.98"/>
</g>
<!-- DKOps_table_governance_contracts&#45;&gt;DKOps_table_governance_migrations_safe_migrator -->
<g id="edge18" class="edge">
<title>DKOps_table_governance_contracts&#45;&gt;DKOps_table_governance_migrations_safe_migrator</title><style>.edge>path:hover{stroke-width:8}</style>
<path fill="none" stroke="black" d="M167.13,-379.15C171.22,-368.11 175.28,-355.16 177.27,-342.98"/>
<path fill="none" stroke="black" d="M177.27,-341.98C179.83,-326.32 170.59,-314.16 157.49,-304.96"/>
<polygon fill="#f31616" stroke="black" points="159.24,-301.93 148.9,-299.61 155.54,-307.87 159.24,-301.93"/>
</g>
<!-- DKOps_table_governance_contracts&#45;&gt;DKOps_table_governance_writers_base_writer -->
<g id="edge19" class="edge">
<title>DKOps_table_governance_contracts&#45;&gt;DKOps_table_governance_writers_base_writer</title><style>.edge>path:hover{stroke-width:8}</style>
<path fill="none" stroke="black" d="M209.02,-387.29C270.4,-364.81 370.72,-328.06 435.87,-304.2"/>
<polygon fill="#f31616" stroke="black" points="437.43,-307.36 445.62,-300.63 435.02,-300.79 437.43,-307.36"/>
</g>
<!-- DKOps_table_governance_contracts&#45;&gt;DKOps_table_governance_writers_delete_writer -->
<g id="edge20" class="edge">
<title>DKOps_table_governance_contracts&#45;&gt;DKOps_table_governance_writers_delete_writer</title><style>.edge>path:hover{stroke-width:8}</style>
<path fill="none" stroke="black" d="M177.27,-341.98C179.42,-328.87 187.33,-318.2 197.44,-309.68"/>
<polygon fill="#f31616" stroke="black" points="199.67,-312.39 205.55,-303.57 195.46,-306.79 199.67,-312.39"/>
</g>
<!-- DKOps_table_governance_contracts_loader&#45;&gt;DKOps_table_governance -->
<g id="edge21" class="edge">
<title>DKOps_table_governance_contracts_loader&#45;&gt;DKOps_table_governance</title><style>.edge>path:hover{stroke-width:8}</style>
<path fill="none" stroke="black" d="M146.67,-499.34C107.56,-490.24 62.32,-472.29 37.27,-436.97 -9.78,-370.59 -12.74,-321.75 32.27,-253.98 70.95,-195.74 148.17,-256.56 177.27,-192.98"/>
<path fill="none" stroke="black" d="M177.27,-190.98C204.43,-130.39 261.59,-157.99 297.27,-101.99"/>
<path fill="none" stroke="black" d="M297.27,-99.99C324.26,-57.64 378.81,-37.36 422.06,-27.69"/>
<polygon fill="#df0b0b" stroke="black" points="422.88,-31.09 431.94,-25.61 421.44,-24.24 422.88,-31.09"/>
</g>
<!-- DKOps_table_governance_contracts_loader&#45;&gt;DKOps_table_governance_contracts_validator -->
<g id="edge22" class="edge">
<title>DKOps_table_governance_contracts_loader&#45;&gt;DKOps_table_governance_contracts_validator</title><style>.edge>path:hover{stroke-width:8}</style>
<path fill="none" stroke="black" d="M279.06,-486.97C323.75,-470.69 384.72,-448.5 430.18,-431.94"/>
<polygon fill="#df0b0b" stroke="black" points="431.44,-435.21 439.64,-428.5 429.04,-428.63 431.44,-435.21"/>
</g>
<!-- DKOps_table_governance_contracts_loader&#45;&gt;DKOps_table_governance_migrations_safe_migrator -->
<g id="edge23" class="edge">
<title>DKOps_table_governance_contracts_loader&#45;&gt;DKOps_table_governance_migrations_safe_migrator</title><style>.edge>path:hover{stroke-width:8}</style>
<path fill="none" stroke="black" d="M153.07,-491.63C113.38,-477.18 67.55,-451.78 51.27,-408.97"/>
</g>
<!-- DKOps_table_governance_contracts_loader&#45;&gt;DKOps_table_governance_writers_base_writer -->
<g id="edge24" class="edge">
<title>DKOps_table_governance_contracts_loader&#45;&gt;DKOps_table_governance_writers_base_writer</title><style>.edge>path:hover{stroke-width:8}</style>
<path fill="none" stroke="black" d="M251.69,-476.21C287.34,-441.22 347.04,-384.84 403.27,-341.98 417.19,-331.38 432.97,-320.81 447.66,-311.51"/>
<polygon fill="#df0b0b" stroke="black" points="449.54,-314.47 456.17,-306.2 445.83,-308.53 449.54,-314.47"/>
</g>
<!-- DKOps_table_governance_contracts_loader&#45;&gt;DKOps_table_governance_writers_delete_writer -->
<g id="edge25" class="edge">
<title>DKOps_table_governance_contracts_loader&#45;&gt;DKOps_table_governance_writers_delete_writer</title><style>.edge>path:hover{stroke-width:8}</style>
<path fill="none" stroke="black" d="M238.06,-473.88C246.86,-455.23 256.09,-431.52 259.27,-408.97"/>
</g>
<!-- DKOps_table_governance_contracts_validator&#45;&gt;DKOps_table_governance -->
<g id="edge26" class="edge">
<title>DKOps_table_governance_contracts_validator&#45;&gt;DKOps_table_governance</title><style>.edge>path:hover{stroke-width:8}</style>
<path fill="none" stroke="black" d="M445.91,-381.67C433.05,-371.71 421.49,-358.82 417.27,-342.98"/>
<path fill="none" stroke="black" d="M417.27,-341.98C391.96,-247.05 324.65,-256.5 234.27,-217.98 208.82,-207.14 166.04,-218.26 177.27,-192.98"/>
</g>
<!-- DKOps_table_governance_contracts_validator&#45;&gt;DKOps_table_governance_writers_base_writer -->
<g id="edge27" class="edge">
<title>DKOps_table_governance_contracts_validator&#45;&gt;DKOps_table_governance_writers_base_writer</title><style>.edge>path:hover{stroke-width:8}</style>
<path fill="none" stroke="black" d="M417.27,-341.98C412.99,-325.93 422.81,-313.46 436.99,-304.1"/>
<polygon fill="blue" stroke="black" points="438.92,-307.03 445.77,-298.95 435.37,-300.99 438.92,-307.03"/>
</g>
<!-- DKOps_table_governance_migrations -->
<g id="node8" class="node">
<title>DKOps_table_governance_migrations</title><style>.edge>path:hover{stroke-width:8}</style>
<ellipse fill="#b65353" stroke="black" cx="651.27" cy="-100.99" rx="75.82" ry="28.98"/>
<text text-anchor="middle" x="651.27" y="-109.49" font-family="Helvetica,sans-Serif" font-size="10.00" fill="#ffffff">DKOps.</text>
<text text-anchor="middle" x="651.27" y="-98.49" font-family="Helvetica,sans-Serif" font-size="10.00" fill="#ffffff">table_governance.</text>
<text text-anchor="middle" x="651.27" y="-87.49" font-family="Helvetica,sans-Serif" font-size="10.00" fill="#ffffff">migrations</text>
</g>
<!-- DKOps_table_governance_migrations&#45;&gt;DKOps_table_governance -->
<g id="edge28" class="edge">
<title>DKOps_table_governance_migrations&#45;&gt;DKOps_table_governance</title><style>.edge>path:hover{stroke-width:8}</style>
<path fill="none" stroke="black" d="M605.64,-77.86C581.68,-66.24 552.45,-52.06 528.68,-40.53"/>
<polygon fill="#b65353" stroke="black" points="530.05,-37.31 519.52,-36.1 526.99,-43.61 530.05,-37.31"/>
</g>
<!-- DKOps_table_governance_migrations_safe_migrator&#45;&gt;DKOps_table_governance -->
<g id="edge29" class="edge">
<title>DKOps_table_governance_migrations_safe_migrator&#45;&gt;DKOps_table_governance</title><style>.edge>path:hover{stroke-width:8}</style>
<path fill="none" stroke="black" d="M128.65,-253.72C146.37,-238.28 166.64,-216.93 177.27,-192.98"/>
</g>
<!-- DKOps_table_governance_writers -->
<g id="node10" class="node">
<title>DKOps_table_governance_writers</title><style>.edge>path:hover{stroke-width:8}</style>
<polygon fill="blue" stroke="black" points="475.77,-121.49 368.77,-121.49 368.77,-80.49 475.77,-80.49 475.77,-121.49"/>
<text text-anchor="middle" x="422.27" y="-109.49" font-family="Helvetica,sans-Serif" font-size="10.00" fill="white">DKOps.</text>
<text text-anchor="middle" x="422.27" y="-98.49" font-family="Helvetica,sans-Serif" font-size="10.00" fill="white">table_governance.</text>
<text text-anchor="middle" x="422.27" y="-87.49" font-family="Helvetica,sans-Serif" font-size="10.00" fill="white">writers</text>
</g>
<!-- DKOps_table_governance_writers&#45;&gt;DKOps_table_governance -->
<g id="edge30" class="edge">
<title>DKOps_table_governance_writers&#45;&gt;DKOps_table_governance</title><style>.edge>path:hover{stroke-width:8}</style>
<path fill="none" stroke="black" d="M437.28,-80.39C445.59,-69.54 456,-55.93 464.91,-44.29"/>
<polygon fill="blue" stroke="black" points="467.79,-46.29 471.09,-36.23 462.23,-42.04 467.79,-46.29"/>
</g>
<!-- DKOps_table_governance_writers_append_writer&#45;&gt;DKOps_table_governance -->
<g id="edge31" class="edge">
<title>DKOps_table_governance_writers_append_writer&#45;&gt;DKOps_table_governance</title><style>.edge>path:hover{stroke-width:8}</style>
<path fill="none" stroke="black" d="M554.59,-165.94C558.62,-146.65 560.48,-120.28 547.27,-101.99"/>
<path fill="none" stroke="black" d="M547.27,-99.99C533.54,-80.98 517.28,-60.11 504.71,-44.32"/>
<polygon fill="blue" stroke="black" points="507.13,-41.73 498.15,-36.11 501.66,-46.1 507.13,-41.73"/>
</g>
<!-- DKOps_table_governance_writers_append_writer&#45;&gt;DKOps_table_governance_writers -->
<g id="edge32" class="edge">
<title>DKOps_table_governance_writers_append_writer&#45;&gt;DKOps_table_governance_writers</title><style>.edge>path:hover{stroke-width:8}</style>
<path fill="none" stroke="black" d="M512.12,-165.96C495.39,-154.05 475.41,-139.82 458.55,-127.82"/>
<polygon fill="blue" stroke="black" points="460.22,-124.71 450.04,-121.76 456.16,-130.41 460.22,-124.71"/>
</g>
<!-- DKOps_table_governance_writers_base_writer&#45;&gt;DKOps_table_governance_writers_append_writer -->
<g id="edge33" class="edge">
<title>DKOps_table_governance_writers_base_writer&#45;&gt;DKOps_table_governance_writers_append_writer</title><style>.edge>path:hover{stroke-width:8}</style>
<path fill="none" stroke="black" d="M513.41,-253.65C518.05,-245.33 523.29,-235.96 528.23,-227.11"/>
<polygon fill="blue" stroke="black" points="531.41,-228.58 533.23,-218.14 525.3,-225.17 531.41,-228.58"/>
</g>
<!-- DKOps_table_governance_writers_base_writer&#45;&gt;DKOps_table_governance_writers_create_writer -->
<g id="edge34" class="edge">
<title>DKOps_table_governance_writers_base_writer&#45;&gt;DKOps_table_governance_writers_create_writer</title><style>.edge>path:hover{stroke-width:8}</style>
<path fill="none" stroke="black" d="M445.67,-256.16C419.43,-244.99 387.66,-231.47 360.27,-219.8"/>
<polygon fill="blue" stroke="black" points="361.35,-216.46 350.77,-215.76 358.6,-222.9 361.35,-216.46"/>
</g>
<!-- DKOps_table_governance_writers_base_writer&#45;&gt;DKOps_table_governance_writers_partition_writer -->
<g id="edge35" class="edge">
<title>DKOps_table_governance_writers_base_writer&#45;&gt;DKOps_table_governance_writers_partition_writer</title><style>.edge>path:hover{stroke-width:8}</style>
<path fill="none" stroke="black" d="M549.78,-253.88C569.41,-244.12 592.05,-232.86 612.49,-222.7"/>
<polygon fill="blue" stroke="black" points="614.31,-225.71 621.71,-218.12 611.19,-219.44 614.31,-225.71"/>
</g>
<!-- DKOps_table_governance_writers_base_writer&#45;&gt;DKOps_table_governance_writers_upsert_writer -->
<g id="edge36" class="edge">
<title>DKOps_table_governance_writers_base_writer&#45;&gt;DKOps_table_governance_writers_upsert_writer</title><style>.edge>path:hover{stroke-width:8}</style>
<path fill="none" stroke="black" d="M476.59,-253.65C468.75,-244.9 459.86,-234.97 451.58,-225.71"/>
<polygon fill="blue" stroke="black" points="454.07,-223.25 444.8,-218.14 448.86,-227.92 454.07,-223.25"/>
</g>
<!-- DKOps_table_governance_writers_create_writer&#45;&gt;DKOps_table_governance -->
<g id="edge37" class="edge">
<title>DKOps_table_governance_writers_create_writer&#45;&gt;DKOps_table_governance</title><style>.edge>path:hover{stroke-width:8}</style>
<path fill="none" stroke="black" d="M290.48,-165.95C286.83,-146.92 285.23,-120.88 297.27,-101.99"/>
</g>
<!-- DKOps_table_governance_writers_create_writer&#45;&gt;DKOps_table_governance_writers -->
<g id="edge38" class="edge">
<title>DKOps_table_governance_writers_create_writer&#45;&gt;DKOps_table_governance_writers</title><style>.edge>path:hover{stroke-width:8}</style>
<path fill="none" stroke="black" d="M332.42,-165.96C349.15,-154.05 369.13,-139.82 386,-127.82"/>
<polygon fill="blue" stroke="black" points="388.38,-130.41 394.5,-121.76 384.33,-124.71 388.38,-130.41"/>
</g>
<!-- DKOps_table_governance_writers_delete_writer&#45;&gt;DKOps_table_governance -->
<g id="edge39" class="edge">
<title>DKOps_table_governance_writers_delete_writer&#45;&gt;DKOps_table_governance</title><style>.edge>path:hover{stroke-width:8}</style>
<path fill="none" stroke="black" d="M209.96,-253.9C186.89,-238.45 166.6,-217.02 177.27,-192.98"/>
</g>
<!-- DKOps_table_governance_writers_delete_writer&#45;&gt;DKOps_table_governance_writers -->
<g id="edge40" class="edge">
<title>DKOps_table_governance_writers_delete_writer&#45;&gt;DKOps_table_governance_writers</title><style>.edge>path:hover{stroke-width:8}</style>
<path fill="none" stroke="black" d="M243.21,-253.79C229.82,-229.26 215.67,-191.96 234.27,-165.98 241.93,-155.28 307.31,-134.59 358.85,-119.62"/>
<polygon fill="blue" stroke="black" points="359.98,-122.94 368.62,-116.81 358.04,-116.21 359.98,-122.94"/>
</g>
<!-- DKOps_table_governance_writers_partition_writer&#45;&gt;DKOps_table_governance -->
<g id="edge41" class="edge">
<title>DKOps_table_governance_writers_partition_writer&#45;&gt;DKOps_table_governance</title><style>.edge>path:hover{stroke-width:8}</style>
<path fill="none" stroke="black" d="M618.68,-166.28C600.82,-156.52 581.6,-144.21 566.27,-129.98 555.25,-119.75 556.08,-114.18 547.27,-101.99"/>
</g>
<!-- DKOps_table_governance_writers_partition_writer&#45;&gt;DKOps_table_governance_writers -->
<g id="edge42" class="edge">
<title>DKOps_table_governance_writers_partition_writer&#45;&gt;DKOps_table_governance_writers</title><style>.edge>path:hover{stroke-width:8}</style>
<path fill="none" stroke="black" d="M618.72,-169.53C615.53,-168.31 612.36,-167.12 609.27,-165.98 568.35,-150.87 521.95,-134.99 485.61,-122.82"/>
<polygon fill="blue" stroke="black" points="486.71,-119.5 476.12,-119.65 484.49,-126.14 486.71,-119.5"/>
</g>
<!-- DKOps_table_governance_writers_upsert_writer&#45;&gt;DKOps_table_governance -->
<g id="edge43" class="edge">
<title>DKOps_table_governance_writers_upsert_writer&#45;&gt;DKOps_table_governance</title><style>.edge>path:hover{stroke-width:8}</style>
<path fill="none" stroke="black" d="M369.03,-165.91C330.41,-145.94 286.64,-118.67 297.27,-101.99"/>
</g>
<!-- DKOps_table_governance_writers_upsert_writer&#45;&gt;DKOps_table_governance_writers -->
<g id="edge44" class="edge">
<title>DKOps_table_governance_writers_upsert_writer&#45;&gt;DKOps_table_governance_writers</title><style>.edge>path:hover{stroke-width:8}</style>
<path fill="none" stroke="black" d="M422.27,-165.72C422.27,-155.13 422.27,-142.74 422.27,-131.71"/>
<polygon fill="blue" stroke="black" points="425.77,-131.66 422.27,-121.66 418.77,-131.66 425.77,-131.66"/>
</g>
<!-- loguru -->
<g id="node17" class="node">
<title>loguru</title><style>.edge>path:hover{stroke-width:8}</style>
<polygon fill="blue" stroke="black" points="473.27,-956.36 470.27,-960.36 449.27,-960.36 446.27,-956.36 419.27,-956.36 419.27,-920.36 473.27,-920.36 473.27,-956.36"/>
<text text-anchor="middle" x="446.27" y="-935.86" font-family="Helvetica,sans-Serif" font-size="10.00" fill="white">loguru</text>
</g>
<!-- loguru&#45;&gt;DKOps_logger_config -->
<g id="edge45" class="edge">
<title>loguru&#45;&gt;DKOps_logger_config</title><style>.edge>path:hover{stroke-width:8}</style>
<path fill="none" stroke="black" d="M446.27,-920.13C446.27,-896.18 446.27,-852.42 446.27,-822.82"/>
<polygon fill="blue" stroke="black" points="449.77,-822.62 446.27,-812.62 442.77,-822.62 449.77,-822.62"/>
</g>
<!-- numpy -->
<g id="node18" class="node">
<title>numpy</title><style>.edge>path:hover{stroke-width:8}</style>
<polygon fill="blue" stroke="black" points="635.27,-1246.36 632.27,-1250.36 611.27,-1250.36 608.27,-1246.36 581.27,-1246.36 581.27,-1210.36 635.27,-1210.36 635.27,-1246.36"/>
<text text-anchor="middle" x="608.27" y="-1225.86" font-family="Helvetica,sans-Serif" font-size="10.00" fill="white">numpy</text>
</g>
<!-- pandas -->
<g id="node19" class="node">
<title>pandas</title><style>.edge>path:hover{stroke-width:8}</style>
<polygon fill="blue" stroke="black" points="580.27,-1100.36 577.27,-1104.36 556.27,-1104.36 553.27,-1100.36 526.27,-1100.36 526.27,-1064.36 580.27,-1064.36 580.27,-1100.36"/>
<text text-anchor="middle" x="553.27" y="-1079.86" font-family="Helvetica,sans-Serif" font-size="10.00" fill="white">pandas</text>
</g>
<!-- numpy&#45;&gt;pandas -->
<g id="edge46" class="edge">
<title>numpy&#45;&gt;pandas</title><style>.edge>path:hover{stroke-width:8}</style>
<path fill="none" stroke="black" d="M610.61,-1210.16C612.56,-1191.85 614.17,-1162.13 608.27,-1137.36"/>
<path fill="none" stroke="black" d="M608.27,-1136.36C604.75,-1124.99 596.94,-1115.09 588.28,-1107.01"/>
<polygon fill="blue" stroke="black" points="590.41,-1104.23 580.54,-1100.39 585.87,-1109.55 590.41,-1104.23"/>
</g>
<!-- pyspark -->
<g id="node21" class="node">
<title>pyspark</title><style>.edge>path:hover{stroke-width:8}</style>
<polygon fill="blue" stroke="black" points="636.27,-884.36 633.27,-888.36 612.27,-888.36 609.27,-884.36 580.27,-884.36 580.27,-848.36 636.27,-848.36 636.27,-884.36"/>
<text text-anchor="middle" x="608.27" y="-863.86" font-family="Helvetica,sans-Serif" font-size="10.00" fill="white">pyspark</text>
</g>
<!-- numpy&#45;&gt;pyspark -->
<g id="edge47" class="edge">
<title>numpy&#45;&gt;pyspark</title><style>.edge>path:hover{stroke-width:8}</style>
<path fill="none" stroke="black" d="M608.27,-1136.36C591.81,-1083.3 598.19,-1065.99 608.27,-1011.36"/>
</g>
<!-- pandas&#45;&gt;pyspark -->
<g id="edge48" class="edge">
<title>pandas&#45;&gt;pyspark</title><style>.edge>path:hover{stroke-width:8}</style>
<path fill="none" stroke="black" d="M574.79,-1064.1C588.49,-1051.31 604.37,-1032.48 608.27,-1011.36"/>
<path fill="none" stroke="black" d="M608.27,-1009.36C613.92,-978.76 602.63,-969.95 608.27,-939.36"/>
</g>
<!-- py4j -->
<g id="node20" class="node">
<title>py4j</title><style>.edge>path:hover{stroke-width:8}</style>
<polygon fill="#0606ef" stroke="black" points="580.27,-1028.36 577.27,-1032.36 556.27,-1032.36 553.27,-1028.36 526.27,-1028.36 526.27,-992.36 580.27,-992.36 580.27,-1028.36"/>
<text text-anchor="middle" x="553.27" y="-1007.86" font-family="Helvetica,sans-Serif" font-size="10.00" fill="#ffffff">py4j</text>
</g>
<!-- py4j&#45;&gt;pyspark -->
<g id="edge49" class="edge">
<title>py4j&#45;&gt;pyspark</title><style>.edge>path:hover{stroke-width:8}</style>
<path fill="none" stroke="black" d="M574.79,-992.1C588.49,-979.31 604.37,-960.48 608.27,-939.36"/>
<path fill="none" stroke="black" d="M608.27,-937.36C610.84,-923.45 611.07,-907.71 610.56,-894.69"/>
<polygon fill="#0606ef" stroke="black" points="614.04,-894.28 609.99,-884.49 607.05,-894.67 614.04,-894.28"/>
</g>
<!-- pyspark&#45;&gt;DKOps_environment_config -->
<g id="edge50" class="edge">
<title>pyspark&#45;&gt;DKOps_environment_config</title><style>.edge>path:hover{stroke-width:8}</style>
<path fill="none" stroke="black" d="M319.27,-790.14C300.6,-779.73 286.85,-759.82 277.9,-742.93"/>
<polygon fill="blue" stroke="black" points="281.01,-741.33 273.42,-733.94 274.75,-744.45 281.01,-741.33"/>
</g>
<!-- pyspark&#45;&gt;DKOps_launcher -->
<g id="edge51" class="edge">
<title>pyspark&#45;&gt;DKOps_launcher</title><style>.edge>path:hover{stroke-width:8}</style>
<path fill="none" stroke="black" d="M636.42,-861.5C673.44,-854.74 737.06,-836.93 765.27,-792.14"/>
<path fill="none" stroke="black" d="M765.27,-790.14C806.74,-724.29 691.44,-675.6 620.78,-652.84"/>
<polygon fill="blue" stroke="black" points="621.72,-649.46 611.13,-649.8 619.62,-656.14 621.72,-649.46"/>
</g>
<!-- pyspark&#45;&gt;DKOps_table_governance_contracts_validator -->
<g id="edge52" class="edge">
<title>pyspark&#45;&gt;DKOps_table_governance_contracts_validator</title><style>.edge>path:hover{stroke-width:8}</style>
<path fill="none" stroke="black" d="M765.27,-790.14C804.33,-732.68 835.01,-700.31 803.27,-638.5"/>
<path fill="none" stroke="black" d="M803.27,-636.5C738.96,-522.64 611.75,-618.23 537.27,-510.74"/>
</g>
<!-- pyspark&#45;&gt;DKOps_table_governance_migrations_safe_migrator -->
<g id="edge53" class="edge">
<title>pyspark&#45;&gt;DKOps_table_governance_migrations_safe_migrator</title><style>.edge>path:hover{stroke-width:8}</style>
<path fill="none" stroke="black" d="M579.91,-862.86C526.11,-857.15 406.81,-839.73 319.27,-792.14"/>
<path fill="none" stroke="black" d="M319.27,-790.14C245.64,-750.11 210.64,-777.87 139.27,-733.93 97.94,-708.48 84.12,-699.33 63.27,-655.5 10.24,-544.04 13.65,-500.14 37.27,-378.98 41.82,-355.64 54.91,-332.59 67.5,-314.72"/>
<polygon fill="blue" stroke="black" points="70.52,-316.52 73.6,-306.38 64.87,-312.38 70.52,-316.52"/>
</g>
<!-- pyspark&#45;&gt;DKOps_table_governance_writers_append_writer -->
<g id="edge54" class="edge">
<title>pyspark&#45;&gt;DKOps_table_governance_writers_append_writer</title><style>.edge>path:hover{stroke-width:8}</style>
<path fill="none" stroke="black" d="M803.27,-508.74C790.18,-436.24 818.91,-414.97 803.27,-342.98"/>
<path fill="none" stroke="black" d="M803.27,-341.98C794.84,-305.85 771.27,-308.4 746.27,-280.98"/>
</g>
<!-- pyspark&#45;&gt;DKOps_table_governance_writers_base_writer -->
<g id="edge55" class="edge">
<title>pyspark&#45;&gt;DKOps_table_governance_writers_base_writer</title><style>.edge>path:hover{stroke-width:8}</style>
<path fill="none" stroke="black" d="M651.27,-508.74C626.04,-468.56 621.96,-455.62 613.27,-408.97"/>
</g>
<!-- pyspark&#45;&gt;DKOps_table_governance_writers_create_writer -->
<g id="edge56" class="edge">
<title>pyspark&#45;&gt;DKOps_table_governance_writers_create_writer</title><style>.edge>path:hover{stroke-width:8}</style>
<path fill="none" stroke="black" d="M803.27,-636.5C796.43,-613.97 812.49,-605.18 803.27,-583.5"/>
<path fill="none" stroke="black" d="M803.27,-582.5C774.05,-513.75 691.01,-574 651.27,-510.74"/>
<path fill="none" stroke="black" d="M651.27,-508.74C620.08,-459.07 646.52,-434.38 627.27,-378.98 606.66,-319.64 612.01,-291.03 561.27,-253.98 490.14,-202.04 449.74,-240.35 360.47,-217.97"/>
<polygon fill="blue" stroke="black" points="361.37,-214.59 350.8,-215.36 359.54,-221.34 361.37,-214.59"/>
</g>
<!-- pyspark&#45;&gt;DKOps_table_governance_writers_delete_writer -->
<g id="edge57" class="edge">
<title>pyspark&#45;&gt;DKOps_table_governance_writers_delete_writer</title><style>.edge>path:hover{stroke-width:8}</style>
<path fill="none" stroke="black" d="M319.27,-790.14C293.57,-775.81 343.45,-761.3 354.27,-733.93 370.18,-693.72 373.27,-681.75 373.27,-638.5 373.27,-638.5 373.27,-638.5 373.27,-508.74 373.27,-448.89 366.68,-431.1 337.27,-378.98 326.46,-359.82 315.84,-361.05 303.27,-342.98"/>
</g>
<!-- pyspark&#45;&gt;DKOps_table_governance_writers_partition_writer -->
<g id="edge58" class="edge">
<title>pyspark&#45;&gt;DKOps_table_governance_writers_partition_writer</title><style>.edge>path:hover{stroke-width:8}</style>
<path fill="none" stroke="black" d="M803.27,-341.98C797.11,-315.58 814.57,-305.63 803.27,-280.98"/>
</g>
<!-- pyspark&#45;&gt;DKOps_table_governance_writers_upsert_writer -->
<g id="edge59" class="edge">
<title>pyspark&#45;&gt;DKOps_table_governance_writers_upsert_writer</title><style>.edge>path:hover{stroke-width:8}</style>
<path fill="none" stroke="black" d="M803.27,-582.5C790.8,-553.15 808.81,-542.15 803.27,-510.74"/>
<path fill="none" stroke="black" d="M803.27,-508.74C780.93,-381.92 768.91,-330.4 665.27,-253.98 601.84,-207.21 565.76,-238.73 485.8,-218.07"/>
<polygon fill="blue" stroke="black" points="486.39,-214.61 475.82,-215.29 484.51,-221.35 486.39,-214.61"/>
</g>
</g>
</svg>
